<?xml version="1.0" encoding="UTF-8"?>
<svg id="Layer_1" data-name="Layer 1" xmlns="http://www.w3.org/2000/svg" width="715.13" height="449.22" viewBox="0 0 715.13 449.22">
  <defs>
    <style>
      .cls-1 {
        fill: #e72323;
      }

      .cls-1, .cls-2 {
        stroke: #fff;
        stroke-miterlimit: 10;
        stroke-width: 2px;
      }

      .cls-2 {
        fill: #343434;
      }
    </style>
  </defs>
  <path class="cls-2" d="m133.93,169.31l-10.54-14.34h71.7l10.54,14.34-17.28,64.53-18.21,14.34h-71.7l18.21-14.34,17.28-64.53Zm13.26,57.36h14.34l13.48-50.19h-14.34l-13.48,50.19Z"/>
  <path class="cls-2" d="m269.62,176.48h-14.34l-3.87,14.34h43.02l-15.34,57.36h-71.7l7.67-28.68h28.68l-1.94,7.17h14.34l3.87-14.34h-43.02l15.34-57.36h71.7l-7.67,28.68h-28.68l1.94-7.17Z"/>
  <path class="cls-2" d="m325.86,169.31l-10.54-14.34h86.04l-9.61,35.85h-28.68l3.87-14.34h-14.34l-13.48,50.19h14.34l3.87-14.34h17.53l-35.85,35.85h-48.65l18.21-14.34,17.28-64.53Z"/>
  <path class="cls-1" d="m338.28,254.93l40.48-40.48h-19.4,75.75l-18.14,14.34-17.28,64.53,10.47,14.34h-43.02l19.22-71.7h-14.34l-19.21,71.7h-43.02l18.21-14.34,10.28-38.39h0Z"/>
  <path class="cls-1" d="m427.26,307.66l18.21-14.34,15.34-57.36h-21.51l5.74-21.51h71.7l-5.74,21.51h-21.51l-15.34,57.36,10.47,14.34h-57.36Z"/>
  <path class="cls-1" d="m537.2,228.79l-10.54-14.34h71.7l10.54,14.34-17.28,64.53-18.21,14.34h-71.7l18.21-14.34,17.28-64.53Zm13.26,57.36h14.34l13.48-50.19h-14.34l-13.48,50.19Z"/>
</svg>