<?xml version="1.0" encoding="UTF-8"?><svg id="Layer_2" xmlns="http://www.w3.org/2000/svg" viewBox="0 0 377.21 247.45"><defs><style>.cls-1{font-family:SheepingCats, 'Sheeping Cats';font-size:44.65px;}.cls-1,.cls-2{fill:#343434;}</style></defs><g id="Layer_1-2"><text class="cls-1" transform="translate(.85 236.55)"><tspan x="0" y="0">Disconnected</tspan></text><path class="cls-2" d="m107.38,172.47c0,1.92,1.21,2.87,3.62,2.87,4.08,0,10.21.13,18.41.38,8.2.25,14.33.37,18.41.37,21.72,0,34.98-.08,39.81-.25,25.13-.83,44.64-9.28,58.53-25.34,13.97-15.96,21.71-34.48,23.28-55.56h-47.9c-1.19,11.13-4.91,20.38-11.19,27.73-8.24,9.57-19.55,14.35-33.95,14.35-13.31,0-19.97-1.79-19.97-5.37,0-3.18-.04-7.39-.11-12.58h-25.47c-2.38,0-4.3-1.93-4.3-4.3v-4.89c0-2.38,1.93-4.3,4.3-4.3h25.26c-.12-7.62-.18-13.5-.18-17.6s.06-9.93.17-17.47h-25.25c-2.38,0-4.3-1.93-4.3-4.3v-4.89c0-2.38,1.93-4.3,4.3-4.3h25.47c.08-5.57.11-10.02.11-13.33s6.41-5.12,19.22-5.12c13.98,0,25.21,4.62,33.7,13.85,7.13,7.55,11.22,16.97,12.3,28.23h47.87c-.76-11.3-3.58-22.33-8.5-33.1-6.07-13.48-14.35-23.96-24.84-31.45-11.15-7.99-26.58-12.98-46.3-14.98-7.57-.75-24.17-1.12-49.8-1.12-13.48,0-23.17.33-29.08,1-2.41.33-3.62,1.37-3.62,3.12"/></g></svg>