<?xml version="1.0" encoding="UTF-8"?>
<svg id="Layer_1" data-name="Layer 1" xmlns="http://www.w3.org/2000/svg" width="377.2" height="262.1" viewBox="0 0 377.2 262.1">
  <defs>
    <style>
      .cls-1 {
        fill: #010101;
      }
    </style>
  </defs>
  <g>
    <path class="cls-1" d="m26,225.1H8.6L0,214.2h39.2l-7.9,37.1H.9l5.1-24h10.9l-2.8,13.1h8.7l3.2-15.3Z"/>
    <path class="cls-1" d="m44.5,251.2h-10.9l7.9-37.1h10.9l-7.9,37.1Z"/>
    <path class="cls-1" d="m35.7,251.2l13.2-10.9h19.6l.5-2.2h-19.6l5.1-24h30.5l-2.3,10.9h-19.6l-.5,2.2h19.6l-5.1,24h-41.4Z"/>
    <path class="cls-1" d="m92.6,240.3h19.6l-2.3,10.9h-30.5l7.9-37.1h30.5l-2.3,10.9h-19.6l-3.2,15.3Z"/>
    <path class="cls-1" d="m150.4,214.2l-7.9,37.1h-30.5l7.9-37.1h30.5Zm-13.2,10.9h-8.7l-3.2,15.3h8.7l3.2-15.3Z"/>
    <path class="cls-1" d="m169,229.3l3.2-15.2h10.9l-8.8,41.5-15.5-19.6-3.2,15.2h-10.9l8.8-41.5,15.4,19.6Z"/>
    <path class="cls-1" d="m201.7,229.3l3.2-15.2h10.9l-8.8,41.5-15.5-19.6-3.2,15.2h-10.9l8.8-41.5,15.4,19.6Z"/>
    <path class="cls-1" d="m223.4,240.3h19.6l-2.3,10.9h-30.5l7.9-37.1h30.5l-2.3,10.9h-19.6l-.5,2.2h19.6l-2.3,10.9h-19.6l-.5,2.2Z"/>
    <path class="cls-1" d="m256.1,240.3h19.6l-2.3,10.9h-30.5l7.9-37.1h30.5l-2.3,10.9h-19.6l-3.2,15.3Z"/>
    <path class="cls-1" d="m311.8,214.2l-2.3,10.9h-8.7l-7.9,37.1-8.6-10.9,5.6-26.2h-8.7l2.3-10.9h28.3Z"/>
    <path class="cls-1" d="m319.3,240.3h19.6l-2.3,10.9h-30.5l7.9-37.1h30.5l-2.3,10.9h-19.6l-.5,2.2h19.6l-2.3,10.9h-19.6l-.5,2.2Z"/>
    <path class="cls-1" d="m364,225.1h-17.4l-8.6-10.9h39.2l-7.9,37.1h-30.5l5.1-24h10.9l-2.8,13.1h8.7l3.2-15.3Z"/>
  </g>
  <path class="cls-1" d="m107.5,172.8c0,1.9,1.2,2.9,3.6,2.9,4.1,0,10.2.1,18.4.4,8.2.2,14.3.4,18.4.4,21.7,0,35,0,39.8-.2,25.1-.8,44.6-9.3,58.5-25.3,14-16,21.7-34.5,23.3-55.6h-47.9c-1.2,11.1-4.9,20.4-11.2,27.7-8.2,9.6-19.6,14.4-33.9,14.4s-20-1.8-20-5.4,0-7.4-.1-12.6h-25.5c-2.4,0-4.3-1.9-4.3-4.3v-4.9c0-2.4,1.9-4.3,4.3-4.3h25.3c-.1-7.6-.2-13.5-.2-17.6s0-9.9.2-17.5h-25.3c-2.4,0-4.3-1.9-4.3-4.3v-4.9c0-2.4,1.9-4.3,4.3-4.3h25.5c0-5.6.1-10,.1-13.3s6.4-5.1,19.2-5.1,25.2,4.6,33.7,13.9c7.1,7.6,11.2,17,12.3,28.2h47.9c-.8-11.3-3.6-22.3-8.5-33.1-6.1-13.5-14.4-24-24.8-31.5-11.2-8-26.6-13-46.3-15-7.6-.7-24.2-1.1-49.8-1.1s-23.2.3-29.1,1c-2.4.3-3.6,1.4-3.6,3.1"/>
</svg>